<svg xmlns="http://www.w3.org/2000/svg" viewBox="0 0 160 132" role="img" aria-labelledby="title desc">
  <title id="title">PudgyDragon dragon head logo</title>
  <desc id="desc">An original angular blue dragon head facing right.</desc>
  <defs>
    <linearGradient id="dragonBlue" x1="12" y1="18" x2="142" y2="112" gradientUnits="userSpaceOnUse">
      <stop stop-color="#16d8ff"/>
      <stop offset="0.48" stop-color="#079ee8"/>
      <stop offset="1" stop-color="#0752a5"/>
    </linearGradient>
    <linearGradient id="dragonLight" x1="60" y1="52" x2="130" y2="104" gradientUnits="userSpaceOnUse">
      <stop stop-color="#d8f8ff"/>
      <stop offset="1" stop-color="#63d8ff"/>
    </linearGradient>
  </defs>
  <g fill="none" stroke-linecap="round" stroke-linejoin="round">
    <path d="M18 110 33 88 26 72 44 70 34 52 57 56 52 34 74 44 82 19 96 42 115 25 113 49 141 43 128 62 149 67 130 78 145 91 120 94c-8 19-24 29-47 28-22-1-41-5-55-12Z" fill="url(#dragonBlue)" stroke="#34d9ff" stroke-width="3.5"/>
    <path d="M57 57c18-13 40-13 59-2-12 2-21 8-27 17 14-4 28-2 41 7-12 1-22 5-30 12 9 1 17 5 24 12-17-1-29 2-38 9-16 0-30-4-42-11 10-5 18-11 24-20-9 2-19 0-28-5 8-4 14-10 17-19Z" fill="#06172b" stroke="#04101f" stroke-width="2"/>
    <path d="M67 63c13-8 26-8 39-2-9 3-15 8-18 15-8-1-15-5-21-13Z" fill="url(#dragonLight)" stroke="#79e7ff" stroke-width="2"/>
    <path d="M86 77c14 0 27 4 39 13-10 1-18 4-25 9-13-1-24-5-34-12 7-5 13-8 20-10Z" fill="#0b6db8" stroke="#2dcfff" stroke-width="2"/>
    <path d="M100 97c10 1 18 4 24 9-12 8-27 12-45 11 8-8 15-14 21-20Z" fill="#d7f7ff" stroke="#38d2ff" stroke-width="2"/>
    <path d="M107 101 102 113M118 101l-3 9" stroke="#06172b" stroke-width="3"/>
    <path d="M52 88c10 1 19 5 27 12-17 0-31-3-42-9 5-2 10-3 15-3Z" fill="#093f7d" stroke="#22bfe9" stroke-width="2"/>
    <path d="M55 43 43 24 70 38M83 42 86 10l13 34M112 49l18-24-5 31" stroke="#31d5ff" stroke-width="5"/>
    <path d="M40 60 22 47l25 4M35 77 12 70l27-2M44 94l-27 5 31 4" stroke="#169edc" stroke-width="4"/>
    <path d="M97 65c4-2 8-1 11 2-4 5-9 6-14 2" fill="#9eff67" stroke="#e8ffd8" stroke-width="1.7"/>
    <circle cx="101" cy="67" r="1.8" fill="#07101e" stroke="none"/>
    <path d="M122 81c5 0 9 2 12 5" stroke="#8eeaff" stroke-width="2.5"/>
    <path d="M62 111c-16-5-27-12-34-22" stroke="#65e3ff" stroke-width="2" opacity=".8"/>
  </g>
</svg>
